<svg id="Calque_1" data-name="Calque 1" xmlns="http://www.w3.org/2000/svg" xmlns:xlink="http://www.w3.org/1999/xlink" viewBox="0 0 681.88 584.04"><defs><style>.cls-1{opacity:0.7;fill:url(#Dégradé_sans_nom_17);}.cls-11,.cls-12,.cls-2{opacity:0.5;}.cls-3{fill:#005c75;}.cls-11,.cls-4{fill:#b6cbd4;}.cls-5{fill:url(#Dégradé_sans_nom_15);}.cls-6{fill:url(#Dégradé_sans_nom_15-2);}.cls-7{opacity:0.1;}.cls-8{fill:url(#Dégradé_sans_nom_47);}.cls-9{fill:url(#Dégradé_sans_nom_47-2);}.cls-10{fill:#033c4c;}.cls-12,.cls-14{fill:#064b5b;}.cls-13{fill:url(#Dégradé_sans_nom_47-3);}.cls-14{opacity:0.73;}.cls-15,.cls-21{fill:#e8f3f6;fill-opacity:0.3;}.cls-16{fill:url(#Dégradé_sans_nom_14);}.cls-17{fill:url(#Dégradé_sans_nom_11);}.cls-18{fill:url(#Dégradé_sans_nom_47-4);}.cls-19{fill:url(#Dégradé_sans_nom_47-5);}.cls-20{fill:#214a59;}.cls-21{stroke:#b6cbd4;stroke-linecap:round;stroke-linejoin:round;stroke-width:4px;}.cls-22{fill:url(#Dégradé_sans_nom_6);}</style><linearGradient id="Dégradé_sans_nom_17" x1="340.94" y1="486.03" x2="340.94" y2="697.62" gradientUnits="userSpaceOnUse"><stop offset="0.06" stop-color="#071b22"/><stop offset="1" stop-color="#0a6e89"/></linearGradient><linearGradient id="Dégradé_sans_nom_15" x1="-1819.64" y1="-1125.01" x2="-1844.51" y2="-1019.36" gradientTransform="translate(2083.9 1725.07) rotate(11)" gradientUnits="userSpaceOnUse"><stop offset="0.25" stop-color="#4c95a9"/><stop offset="0.27" stop-color="#4791a5" stop-opacity="0.93"/><stop offset="0.35" stop-color="#348399" stop-opacity="0.68"/><stop offset="0.44" stop-color="#24778e" stop-opacity="0.47"/><stop offset="0.53" stop-color="#176d85" stop-opacity="0.3"/><stop offset="0.62" stop-color="#0d667e" stop-opacity="0.17"/><stop offset="0.72" stop-color="#066079" stop-opacity="0.07"/><stop offset="0.84" stop-color="#015d76" stop-opacity="0.02"/><stop offset="1" stop-color="#005c75" stop-opacity="0"/></linearGradient><linearGradient id="Dégradé_sans_nom_15-2" x1="661.63" y1="459.41" x2="532.81" y2="329.5" gradientTransform="matrix(1, 0, 0, 1, 0, 0)" xlink:href="#Dégradé_sans_nom_15"/><linearGradient id="Dégradé_sans_nom_47" x1="-1725.22" y1="-1098.23" x2="-1746.48" y2="-1098.01" gradientTransform="translate(2083.9 1725.07) rotate(11)" gradientUnits="userSpaceOnUse"><stop offset="0" stop-color="#071b22" stop-opacity="0.1"/><stop offset="1" stop-opacity="0.4"/></linearGradient><linearGradient id="Dégradé_sans_nom_47-2" x1="477.33" y1="286.54" x2="487.93" y2="355.38" gradientTransform="matrix(1, 0, 0, 1, 0, 0)" xlink:href="#Dégradé_sans_nom_47"/><linearGradient id="Dégradé_sans_nom_47-3" x1="-1791.57" y1="-1095.6" x2="-1798.01" y2="-1045.47" xlink:href="#Dégradé_sans_nom_47"/><linearGradient id="Dégradé_sans_nom_14" x1="2320.29" y1="2244.91" x2="2212.59" y2="2101.63" gradientTransform="translate(-2014.85 -1756.14)" gradientUnits="userSpaceOnUse"><stop offset="0.25" stop-color="#4c95a9"/><stop offset="1" stop-color="#005c75" stop-opacity="0"/></linearGradient><linearGradient id="Dégradé_sans_nom_11" x1="19.88" y1="172.05" x2="97.28" y2="226.93" gradientTransform="translate(46.36 -15.86) rotate(11)" gradientUnits="userSpaceOnUse"><stop offset="0" stop-color="#071b22"/><stop offset="0.02" stop-color="#071a21" stop-opacity="0.96"/><stop offset="0.32" stop-color="#030b0e" stop-opacity="0.42"/><stop offset="0.64" stop-color="#010304" stop-opacity="0.1"/><stop offset="1" stop-opacity="0"/></linearGradient><linearGradient id="Dégradé_sans_nom_47-4" x1="461.99" y1="367.54" x2="404.85" y2="308.38" gradientTransform="matrix(1, 0, 0, 1, 0, 0)" xlink:href="#Dégradé_sans_nom_47"/><linearGradient id="Dégradé_sans_nom_47-5" x1="287.27" y1="381.91" x2="117.71" y2="155.21" gradientTransform="matrix(1, 0, 0, 1, 0, 0)" xlink:href="#Dégradé_sans_nom_47"/><linearGradient id="Dégradé_sans_nom_6" x1="483.66" y1="476.82" x2="375.95" y2="333.53" gradientTransform="matrix(1, 0, 0, 1, 0, 0)" xlink:href="#Dégradé_sans_nom_14"/></defs><title>addFile</title><ellipse class="cls-1" cx="340.94" cy="516.02" rx="230.07" ry="23.4"/><g class="cls-2"><path class="cls-3" d="M615.31,320.45,549.16,274.2a36,36,0,0,0-28.67-5.58l-78.66,18.11a2.77,2.77,0,0,0-2.09,2.16l-15.61,80.33a8.17,8.17,0,0,0,6.45,9.57L591.25,410a8.16,8.16,0,0,0,9.57-6.45l15.61-80.34A2.76,2.76,0,0,0,615.31,320.45Z"/><path class="cls-4" d="M592.82,412.17a10.31,10.31,0,0,1-1.24-.07l.49-4a6.17,6.17,0,0,0,6.77-4.88l3.92.81A10.19,10.19,0,0,1,592.82,412.17Zm-5.36-.85L575.54,409l.76-3.92,11.93,2.31Zm-15.9-3.09-11.93-2.32.77-3.93,11.93,2.32Zm-15.9-3.09-11.93-2.32.77-3.93,11.92,2.32Zm-15.9-3.09-11.93-2.32.76-3.93,11.93,2.32Zm63.78-2-3.93-.76,2.32-11.93,3.93.76ZM523.85,399l-11.92-2.32.76-3.93L524.62,395Zm-15.9-3.1L496,393.55l.76-3.93,11.93,2.32Zm-15.9-3.09-11.93-2.31.77-3.93,11.92,2.32Zm-15.9-3.09-11.93-2.32.76-3.92,11.93,2.32Zm-15.91-3.09-11.92-2.32.76-3.92L461,382.67Zm146.39-2.43-3.93-.76L605,371.47l3.93.76Zm-162.29-.66-11.92-2.32.76-3.92,11.93,2.31Zm-16.27-3.41a10.14,10.14,0,0,1-6.09-9.3,10.64,10.64,0,0,1,.18-2l.22-1.1,3.92.76-.21,1.1a5.92,5.92,0,0,0-.11,1.19,6.14,6.14,0,0,0,3.69,5.63Zm181.65-11.83-3.93-.77,2.32-11.92,3.93.76Zm-182.64-3.73-3.93-.77,2.32-11.92,3.92.76Zm185.73-12.18-3.92-.76,2.31-11.93,3.93.77Zm-182.64-3.73-3.93-.76,2.32-11.93,3.93.77ZM615.9,336.45l-3.92-.76,2.31-11.93,3.93.76Zm-182.64-3.73-3.93-.76L431.65,320l3.93.77ZM614.17,322.1l1.18-1.62-1.2,1.6-9.94-6.95,2.29-3.28,10,7-1.11,1.67Zm-177.82-5.28-3.93-.76,2.32-11.93,3.93.76Zm164.54-4-10-7,2.29-3.28,10,7Zm-13.28-9.28-10-7,2.3-3.28,9.95,7Zm-148.17-2.61-3.93-.77,2.27-11.64a3.74,3.74,0,0,1,.12-.48l3.82,1.16v.08Zm134.89-6.68-10-7,2.29-3.28,10,7Zm-130.92-5.82-.9-3.9,11.84-2.72.9,3.89ZM561.06,285l-10-7,2.29-3.28,10,7Zm-101.86-.17-.9-3.9,11.84-2.73.9,3.9ZM475,281.15l-.9-3.9,11.85-2.72.89,3.9Zm15.79-3.63-.9-3.9,11.84-2.73.9,3.9Zm57-1.84a33.83,33.83,0,0,0-10.36-4.79l1.05-3.86a37.7,37.7,0,0,1,11.58,5.36Zm-41.23-1.8-.9-3.89,11.84-2.73.9,3.9Zm15.71-3.59-.74-3.93a38,38,0,0,1,12.76-.21l-.6,4A34.21,34.21,0,0,0,522.27,270.29Z"/></g><g class="cls-2"><path class="cls-5" d="M523.44,352.55l-78.18-54.69L431.2,370.21a2.62,2.62,0,0,0,2,3.1l83,16.14Z"/><path class="cls-6" d="M523.44,352.55,609,329.68,594.89,402a2.51,2.51,0,0,1-2.82,2.15l-75.8-14.73Z"/></g><polygon class="cls-7" points="524.13 349.01 444.04 293 525.79 340.47 610.91 325.43 524.13 349.01"/><polygon class="cls-7" points="524.13 349.01 444.04 293 525.79 340.47 524.13 349.01"/><polygon class="cls-8" points="582.12 333.11 589.23 297.31 594.73 301.21 588.6 331.5 582.12 333.11"/><polygon class="cls-9" points="483.83 273.05 475.8 315.21 472.85 313.14 481.07 273.05 483.83 273.05"/><path class="cls-10" d="M599.68,224.94l-99.11-19.26a3.57,3.57,0,0,0-4.19,2.82L475.66,315.11,524.13,349l58.14-15.79L602.5,229.13A3.57,3.57,0,0,0,599.68,224.94Z"/><rect class="cls-11" x="475.87" y="281.27" width="11.96" height="4" transform="translate(111.85 702.21) rotate(-79)"/><polygon class="cls-11" points="473.87 313.86 477.45 316.37 478.87 309.09 474.94 308.33 473.87 313.86"/><rect class="cls-11" x="472.82" y="296.92" width="11.96" height="4" transform="translate(94.05 711.93) rotate(-79.01)"/><rect class="cls-11" x="512.25" y="202.35" width="4" height="11.96" transform="translate(211.63 673.39) rotate(-79)"/><rect class="cls-11" x="485" y="234.29" width="11.96" height="4" transform="translate(165.35 673.16) rotate(-79)"/><rect class="cls-11" x="478.91" y="265.61" width="11.96" height="4" transform="translate(129.68 692.53) rotate(-79)"/><path class="cls-11" d="M498.35,208.88a1.57,1.57,0,0,1,1.84-1.24l3.89.76.76-3.93-3.89-.76a5.46,5.46,0,0,0-1.07-.1,5.58,5.58,0,0,0-5.46,4.51l-.46,2.34,3.93.76Z"/><rect class="cls-11" x="488.04" y="218.63" width="11.96" height="4" transform="translate(183.18 663.48) rotate(-79)"/><rect class="cls-11" x="543.57" y="208.44" width="4" height="11.96" transform="translate(230.94 709.02) rotate(-78.99)"/><rect class="cls-11" x="481.95" y="249.95" width="11.96" height="4" transform="translate(147.47 682.81) rotate(-78.99)"/><rect class="cls-11" x="527.91" y="205.4" width="4" height="11.96" transform="translate(221.32 691.23) rotate(-79)"/><rect class="cls-11" x="590.54" y="217.57" width="4" height="11.96" transform="translate(260.02 762.55) rotate(-79)"/><rect class="cls-11" x="580.71" y="308.44" width="11.96" height="4" transform="translate(170.01 827.12) rotate(-79)"/><rect class="cls-11" x="577.67" y="324.1" width="11.96" height="4" transform="translate(152.18 836.81) rotate(-79)"/><path class="cls-11" d="M600.27,227.53a1.57,1.57,0,0,1,.3.91,1.53,1.53,0,0,1,0,.3l-1.73,8.9,3.92.76,1.73-8.89a5.46,5.46,0,0,0-.94-4.31Z"/><rect class="cls-11" x="574.89" y="214.53" width="4" height="11.96" transform="translate(250.33 744.71) rotate(-79)"/><rect class="cls-11" x="559.23" y="211.49" width="4" height="11.96" transform="translate(240.62 726.86) rotate(-78.99)"/><rect class="cls-11" x="583.76" y="292.78" width="11.96" height="4" transform="translate(187.89 817.48) rotate(-79.01)"/><rect class="cls-11" x="586.8" y="277.12" width="11.96" height="4" transform="translate(205.75 807.81) rotate(-79.01)"/><rect class="cls-11" x="592.89" y="245.81" width="11.96" height="4" transform="translate(241.35 788.39) rotate(-79)"/><rect class="cls-11" x="589.84" y="261.46" width="11.96" height="4" transform="translate(223.59 798.13) rotate(-79.01)"/><rect class="cls-12" x="505.67" y="227.79" width="44" height="6" transform="translate(53.73 -96.44) rotate(11)"/><rect class="cls-7" x="500.34" y="257.18" width="84.56" height="6" transform="translate(59.61 -98.76) rotate(11)"/><rect class="cls-7" x="497.67" y="270.92" width="84.56" height="6" transform="translate(62.19 -97.99) rotate(11)"/><rect class="cls-7" x="495" y="284.67" width="84.56" height="6" transform="translate(64.76 -97.23) rotate(11)"/><rect class="cls-7" x="492.33" y="298.41" width="84.56" height="6" transform="translate(67.33 -96.47) rotate(11)"/><rect class="cls-7" x="489.66" y="312.15" width="84.56" height="6" transform="translate(69.91 -95.71) rotate(11)"/><polygon class="cls-7" points="556.77 337.3 496.75 325.63 488.02 319.5 488.33 317.88 570.45 333.85 556.77 337.3"/><polygon class="cls-13" points="524.84 345.36 478.19 312.6 477.45 316.37 524.13 349.01 580.23 333.63 580.54 331.3 524.84 345.36"/><g class="cls-2"><path class="cls-3" d="M52.8,194.87l132.13-25.68,42.35,32.35,32.47,167a10,10,0,0,1-7.91,11.72L94.78,410.83a10,10,0,0,1-11.73-7.91L44.89,206.6A10,10,0,0,1,52.8,194.87Z"/><path class="cls-4" d="M188.48,174.42l-4-3.1-5,1-.76-3.93,5.89-1.14a2,2,0,0,1,1.59.37l4.77,3.64Z"/><path class="cls-4" d="M92.86,413a11.92,11.92,0,0,1-4-.7l1.35-3.77a8,8,0,0,0,4.2.32l6.5-1.27.76,3.93-6.5,1.26A11.88,11.88,0,0,1,92.86,413Zm12.71-2.25-.76-3.93,11.73-2.28.77,3.93Zm-20.79-.89a11.91,11.91,0,0,1-3.69-6.58L80,397.85l3.93-.77L85,402.54a7.9,7.9,0,0,0,2.46,4.38Zm36.44-2.15-.76-3.93,11.73-2.28.76,3.93Zm15.65-3-.77-3.93,11.74-2.28.76,3.92Zm15.64-3.05-.76-3.92,11.74-2.28.76,3.92Zm15.65-3-.76-3.92,11.73-2.28.77,3.92Zm15.65-3-.77-3.93,11.74-2.28.76,3.93ZM79.27,393.93,77,382.2l3.92-.77,2.29,11.74Zm120.19-1.41-.77-3.93,11.74-2.28.76,3.93Zm15.64-3-.76-3.93,11.73-2.28.77,3.93Zm15.65-3-.76-3.93,11.73-2.28.77,3.93Zm15.65-3-.77-3.93,5.83-1.13a8,8,0,0,0,4.18-2.25l2.85,2.8a11.85,11.85,0,0,1-6.27,3.37ZM76.23,378.29,74,366.55l3.92-.76,2.28,11.73Zm184.85-3.37-3.71-1.48a8,8,0,0,0,.41-4.48l-1.19-6.14,3.93-.76,1.19,6.13a12,12,0,0,1-.63,6.73ZM73.19,362.64,70.9,350.9l3.93-.76,2.28,11.74Zm182.64-3.73-2.28-11.74,3.93-.76,2.28,11.74ZM70.14,347l-2.28-11.73,3.93-.77,2.28,11.74Zm182.65-3.73-2.28-11.73,3.92-.77,2.29,11.74ZM67.1,331.34l-2.28-11.73,3.93-.76L71,330.58Zm182.65-3.72-2.28-11.74,3.92-.76,2.28,11.73ZM64.06,315.7,61.78,304l3.93-.76L68,314.93ZM246.71,312l-2.29-11.74,3.93-.76,2.28,11.74ZM61,300.05l-2.28-11.74,3.93-.76L65,299.29Zm182.64-3.73-2.28-11.73,3.93-.77,2.28,11.74ZM58,284.4,55.7,272.67l3.92-.77,2.28,11.74Zm182.64-3.73-2.28-11.73,3.93-.76,2.28,11.73ZM54.94,268.76,52.66,257l3.92-.76L58.86,268ZM237.58,265l-2.28-11.74,3.93-.76,2.28,11.73ZM51.9,253.11l-2.29-11.74,3.93-.76,2.28,11.74Zm182.64-3.73-2.28-11.74,3.92-.76,2.29,11.74ZM48.85,237.46l-2.28-11.73L50.5,225l2.28,11.74Zm182.65-3.73L229.22,222l3.92-.77L235.42,233ZM45.81,221.81l-2.28-11.73,3.93-.76,2.28,11.73Zm182.65-3.72-2.28-11.74,3.92-.76,2.28,11.73ZM42.78,206a11.67,11.67,0,0,1-.07-1.32,12,12,0,0,1,6.4-10.61L51,197.61a8,8,0,0,0-4.27,7.07,8.77,8.77,0,0,0,0,.88Zm183.28-2.88L217,196.19l2.43-3.18,9.08,6.94a2,2,0,0,1,.75,1.2l.1.52-2.55.5ZM54.21,196.63l-.76-3.92,11.74-2.28.76,3.92Zm159.61-2.86-9.5-7.26,2.42-3.17,9.51,7.25Zm-144-.18-.76-3.92,11.73-2.29.77,3.93Zm15.65-3-.76-3.93,11.73-2.28.76,3.93Zm15.65-3-.77-3.93,11.74-2.28.76,3.93Zm15.64-3-.76-3.93,11.74-2.28.76,3.93Zm84.35-.37-9.5-7.26,2.43-3.18,9.5,7.26Zm-68.7-2.67-.76-3.93,11.73-2.28.77,3.92Zm15.65-3.05-.77-3.92,11.74-2.28.76,3.92Zm15.64-3-.76-3.92,11.74-2.28.76,3.92Z"/><path class="cls-14" d="M192.19,208.53l3.1,5.5s28.28-6.51,32.23-12.37Z"/><polyline class="cls-15" points="227.52 201.66 192.19 208.53 184.55 169.26"/><rect class="cls-4" x="221.58" y="200.23" width="6" height="4" transform="matrix(0.98, -0.19, 0.19, 0.98, -34.46, 46.57)"/><rect class="cls-4" x="202.65" y="203.09" width="14.4" height="4" transform="translate(-35.27 43.8) rotate(-11)"/><path class="cls-4" d="M192.18,210.53a2,2,0,0,1-2-1.62L189.08,203l3.92-.77.77,3.93,3.92-.76.77,3.93-5.89,1.14A2.58,2.58,0,0,1,192.18,210.53Z"/><path class="cls-4" d="M188.48,200l-1.78-9.16,3.93-.76,1.78,9.16Zm-2.37-12.21-1.78-9.16,3.92-.77L190,187Z"/><rect class="cls-4" x="183.13" y="169.21" width="4" height="6" transform="translate(-29.46 38.49) rotate(-11)"/><path class="cls-16" d="M144.76,302.15H247a0,0,0,0,1,0,0v74.51a7.2,7.2,0,0,1-7.2,7.2h-95a0,0,0,0,1,0,0V302.15A0,0,0,0,1,144.76,302.15Z" transform="translate(-61.85 43.67) rotate(-11)"/><rect class="cls-7" x="73.11" y="256.56" width="147" height="3" transform="translate(-46.55 32.71) rotate(-11)"/><rect class="cls-7" x="77.27" y="278.01" width="147" height="3" transform="translate(-50.56 33.9) rotate(-11)"/><rect class="cls-7" x="81.44" y="299.46" width="147" height="3" transform="translate(-54.58 35.09) rotate(-11)"/><rect class="cls-7" x="85.61" y="320.91" width="147" height="3" transform="translate(-58.6 36.28) rotate(-11)"/><rect class="cls-7" x="89.78" y="342.36" width="147" height="3" transform="translate(-62.61 37.47) rotate(-11)"/><rect class="cls-7" x="39.06" y="313.2" width="90.41" height="3" transform="translate(377.1 171.93) rotate(79)"/><rect class="cls-7" x="53.2" y="296.05" width="90.41" height="31.8" transform="translate(385.85 155.83) rotate(79)"/><rect class="cls-7" x="67.33" y="307.7" width="90.41" height="3" transform="translate(394.59 139.73) rotate(79)"/><rect class="cls-7" x="95.6" y="302.21" width="90.41" height="3" transform="translate(412.07 107.54) rotate(79)"/><rect class="cls-7" x="123.88" y="296.71" width="90.41" height="3" transform="translate(429.55 75.34) rotate(79)"/><rect class="cls-7" x="152.15" y="291.22" width="90.41" height="3" transform="translate(447.03 43.14) rotate(79)"/><rect class="cls-7" x="180.42" y="285.72" width="90.41" height="3" transform="translate(464.52 10.94) rotate(79)"/></g><path class="cls-17" d="M62.64,193.18h89.12a0,0,0,0,1,0,0v79.23a0,0,0,0,1,0,0H59.35a0,0,0,0,1,0,0V196.46A3.28,3.28,0,0,1,62.64,193.18Z" transform="matrix(0.98, -0.19, 0.19, 0.98, -42.48, 24.42)"/><path class="cls-18" d="M408.14,377.27l27.69-89c.62-3.86,2.88-4.7,5.55-5.7l1.57-.22v88.19a11.79,11.79,0,0,1-11.79,11.8h-2.55Z"/><path class="cls-19" d="M280.86,379.27l-27.69-89c-.63-3.86-7.13-13.15-7.13-13.15v95.42a11.8,11.8,0,0,0,11.8,11.8h2.55Z"/><path class="cls-20" d="M261.91,158.34h134.6l35.4,39.83V368.34a10,10,0,0,1-10,10h-160a10,10,0,0,1-10-10v-200A10,10,0,0,1,261.91,158.34Z"/><path class="cls-4" d="M421.91,382.34h-160a14,14,0,0,1-14-14v-200a14,14,0,0,1,14-14h136.4l37.6,42.31V368.34A14,14,0,0,1,421.91,382.34Zm-160-220a6,6,0,0,0-6,6v200a6,6,0,0,0,6,6h160a6,6,0,0,0,6-6V199.69l-33.19-37.35Z"/><path class="cls-12" d="M396.13,198.34l2,6s29-1,34-6Z"/><polygon class="cls-21" points="432.13 198.34 396.13 198.34 396.13 158.34 432.13 198.34"/><path class="cls-22" d="M323,290.19h102.2a0,0,0,0,1,0,0V364.7a7.2,7.2,0,0,1-7.2,7.2H323a0,0,0,0,1,0,0V290.19A0,0,0,0,1,323,290.19Z"/><rect class="cls-12" x="268.5" y="178.34" width="44" height="6"/><rect class="cls-7" x="268.5" y="224.34" width="147" height="6"/><rect class="cls-7" x="268.5" y="238.34" width="147" height="6"/><rect class="cls-7" x="268.5" y="252.34" width="147" height="6"/><rect class="cls-7" x="268.5" y="266.34" width="147" height="6"/><rect class="cls-7" x="268.5" y="280.34" width="147" height="6"/><rect class="cls-7" x="268.5" y="294.34" width="147" height="6"/><rect class="cls-7" x="268.5" y="308.34" width="147" height="6"/><rect class="cls-7" x="268.5" y="322.34" width="147" height="6"/><rect class="cls-7" x="268.5" y="336.34" width="147" height="6"/></svg>