<?xml version="1.0" standalone="no"?>
<!DOCTYPE svg PUBLIC "-//W3C//DTD SVG 20010904//EN"
 "http://www.w3.org/TR/2001/REC-SVG-20010904/DTD/svg10.dtd">
<svg version="1.0" xmlns="http://www.w3.org/2000/svg"
 width="99.000000pt" height="120.000000pt" viewBox="0 0 99.000000 120.000000"
 preserveAspectRatio="xMidYMid meet">

<g transform="translate(0.000000,120.000000) scale(0.100000,-0.100000)"
fill="#000000" stroke="none">
<path d="M0 654 l0 -545 33 -30 c17 -16 53 -41 79 -54 l48 -25 331 0 330 0 47
27 c26 14 64 42 84 62 l38 35 0 538 0 538 -495 0 -495 0 0 -546z m638 303 c12
-6 69 -77 127 -157 78 -108 105 -153 105 -175 0 -26 -73 -139 -167 -260 -5 -5
-16 -23 -26 -38 -33 -51 -60 -56 -321 -54 -293 2 -287 -1 -224 116 23 42 59
104 80 138 54 90 56 103 19 163 -17 28 -31 52 -31 55 0 2 -13 24 -30 48 -16
25 -30 48 -30 52 0 4 -14 30 -30 57 l-30 49 22 9 c37 14 509 12 536 -3z"/>
</g>
</svg>
