<svg id="Calque_1" data-name="Calque 1" xmlns="http://www.w3.org/2000/svg" xmlns:xlink="http://www.w3.org/1999/xlink" viewBox="0 0 681.88 584.04"><defs><style>.cls-1{opacity:0.7;fill:url(#Dégradé_sans_nom_24);}.cls-2{opacity:0.58;}.cls-10,.cls-11,.cls-3,.cls-4,.cls-5,.cls-6,.cls-7,.cls-8,.cls-9{fill-rule:evenodd;opacity:0.26;}.cls-3{fill:url(#Dégradé_sans_nom_10);}.cls-4{fill:url(#Dégradé_sans_nom_12);}.cls-5{fill:url(#Dégradé_sans_nom_10-2);}.cls-6{fill:url(#Dégradé_sans_nom_12-2);}.cls-7{fill:url(#Dégradé_sans_nom_10-3);}.cls-8{fill:url(#Dégradé_sans_nom_10-4);}.cls-9{fill:url(#Dégradé_sans_nom_12-3);}.cls-10{fill:url(#Dégradé_sans_nom_10-5);}.cls-11{fill:url(#Dégradé_sans_nom_12-4);}.cls-12{fill:#005c75;}.cls-13{fill:#b6cbd4;}.cls-14{opacity:0.41;fill:url(#Dégradé_sans_nom_17);}.cls-15{fill:#e8f3f6;fill-opacity:0.3;stroke:#b6cbd4;stroke-linecap:round;stroke-linejoin:round;stroke-width:4px;}.cls-16{fill:url(#Dégradé_sans_nom_2);}.cls-17{opacity:0.4;}.cls-18{fill:#071b22;}</style><linearGradient id="Dégradé_sans_nom_24" x1="340.94" y1="494.12" x2="340.94" y2="656.76" gradientUnits="userSpaceOnUse"><stop offset="0" stop-color="#071b22" stop-opacity="0"/><stop offset="0.48" stop-color="#0a6e89"/></linearGradient><linearGradient id="Dégradé_sans_nom_10" x1="155.59" y1="268.8" x2="260.59" y2="268.8" gradientUnits="userSpaceOnUse"><stop offset="0.06" stop-color="#071b22"/><stop offset="1" stop-color="#fff"/></linearGradient><linearGradient id="Dégradé_sans_nom_12" x1="414.59" y1="268.8" x2="519.59" y2="268.8" gradientUnits="userSpaceOnUse"><stop offset="0" stop-color="#fff"/><stop offset="0.94" stop-color="#071b22"/></linearGradient><linearGradient id="Dégradé_sans_nom_10-2" x1="40.59" y1="276.8" x2="145.59" y2="276.8" xlink:href="#Dégradé_sans_nom_10"/><linearGradient id="Dégradé_sans_nom_12-2" x1="503.59" y1="268.8" x2="608.59" y2="268.8" xlink:href="#Dégradé_sans_nom_12"/><linearGradient id="Dégradé_sans_nom_10-3" x1="129.59" y1="276.8" x2="234.59" y2="276.8" xlink:href="#Dégradé_sans_nom_10"/><linearGradient id="Dégradé_sans_nom_10-4" x1="172.59" y1="294.8" x2="277.59" y2="294.8" xlink:href="#Dégradé_sans_nom_10"/><linearGradient id="Dégradé_sans_nom_12-3" x1="477.18" y1="287.36" x2="576.37" y2="287.36" xlink:href="#Dégradé_sans_nom_12"/><linearGradient id="Dégradé_sans_nom_10-5" x1="103.18" y1="295.36" x2="202.37" y2="295.36" xlink:href="#Dégradé_sans_nom_10"/><linearGradient id="Dégradé_sans_nom_12-4" x1="392.18" y1="276.36" x2="491.37" y2="276.36" xlink:href="#Dégradé_sans_nom_12"/><linearGradient id="Dégradé_sans_nom_17" x1="413.89" y1="193.54" x2="414.9" y2="211.41" gradientUnits="userSpaceOnUse"><stop offset="0.06" stop-color="#071b22"/><stop offset="1" stop-color="#0a6e89"/></linearGradient><linearGradient id="Dégradé_sans_nom_2" x1="483.74" y1="475.74" x2="376.03" y2="332.45" gradientUnits="userSpaceOnUse"><stop offset="0.25" stop-color="#4c95a9"/><stop offset="1" stop-color="#005c75"/></linearGradient></defs><title>noVisualization</title><ellipse class="cls-1" cx="340.94" cy="516.02" rx="185.73" ry="23.4"/><g class="cls-2"><path class="cls-3" d="M177.72,262.8A35,35,0,0,1,247,259.57a25,25,0,1,1-28.3,40.7,35.61,35.61,0,0,1-6.15.53,34.9,34.9,0,0,1-16.48-4.11,22,22,0,1,1-18.52-33.89Z"/><path class="cls-4" d="M436.72,262.8A35,35,0,0,1,506,259.57a25,25,0,1,1-28.3,40.7,35.61,35.61,0,0,1-6.15.53,34.9,34.9,0,0,1-16.48-4.11,22,22,0,1,1-18.52-33.89Z"/><path class="cls-5" d="M62.72,270.8A35,35,0,0,1,132,267.57a25,25,0,1,1-28.3,40.7,35.61,35.61,0,0,1-6.15.53,34.9,34.9,0,0,1-16.48-4.11A22,22,0,1,1,62.59,270.8Z"/><path class="cls-6" d="M525.72,262.8A35,35,0,0,1,595,259.57a25,25,0,1,1-28.3,40.7,35.61,35.61,0,0,1-6.15.53,34.9,34.9,0,0,1-16.48-4.11,22,22,0,1,1-18.52-33.89Z"/><path class="cls-7" d="M151.72,270.8A35,35,0,0,1,221,267.57a25,25,0,1,1-28.3,40.7,35.61,35.61,0,0,1-6.15.53,34.9,34.9,0,0,1-16.48-4.11,22,22,0,1,1-18.52-33.89Z"/><path class="cls-8" d="M194.72,288.8A35,35,0,0,1,264,285.57a25,25,0,1,1-28.3,40.7,35.61,35.61,0,0,1-6.15.53,34.9,34.9,0,0,1-16.48-4.11,22,22,0,1,1-18.52-33.89Z"/><path class="cls-9" d="M543.59,314.46a35,35,0,0,1-62.2-30.78,25,25,0,1,1,44.49-21.87,36,36,0,0,1,5.63,2.51,34.84,34.84,0,0,1,12.42,11.59,22,22,0,1,1-.23,38.62Z"/><path class="cls-10" d="M169.59,322.46a35,35,0,0,1-62.2-30.78,25,25,0,1,1,44.49-21.87,36,36,0,0,1,5.63,2.51,34.84,34.84,0,0,1,12.42,11.59,22,22,0,1,1-.23,38.62Z"/><path class="cls-11" d="M458.59,303.46a35,35,0,0,1-62.2-30.78,25,25,0,1,1,44.49-21.87,36,36,0,0,1,5.63,2.51,34.84,34.84,0,0,1,12.42,11.59,22,22,0,1,1-.23,38.62Z"/></g><path class="cls-12" d="M262,157.26h134.6L432,197.09V367.26a10,10,0,0,1-10,10H262a10,10,0,0,1-10-10v-200A10,10,0,0,1,262,157.26Z"/><path class="cls-13" d="M422,381.26H262a14,14,0,0,1-14-14v-200a14,14,0,0,1,14-14h136.4L436,195.57V367.26A14,14,0,0,1,422,381.26Zm-160-220a6,6,0,0,0-6,6v200a6,6,0,0,0,6,6H422a6,6,0,0,0,6-6V198.61L394.8,161.26Z"/><polygon class="cls-14" points="400.21 197.26 401.28 201.89 427.99 199.94 427.99 199.94 427.99 197.26 400.21 197.26"/><polygon class="cls-15" points="432.21 197.26 396.21 197.26 396.21 157.26 432.21 197.26"/><path class="cls-16" d="M323.07,289.11h102.2a0,0,0,0,1,0,0v74.51a7.2,7.2,0,0,1-7.2,7.2h-95a0,0,0,0,1,0,0V289.11A0,0,0,0,1,323.07,289.11Z"/><g class="cls-17"><path class="cls-18" d="M272.24,362.26h10.05L417,227.55V215.77a5.22,5.22,0,0,0-2.83-4.63l-147,147A5.24,5.24,0,0,0,272.24,362.26Z"/><polygon class="cls-18" points="309.57 362.26 416.99 254.84 416.99 235.59 290.33 362.26 309.57 362.26"/><path class="cls-18" d="M267,350.27,406.74,210.52H388.41a5.56,5.56,0,0,1-.83-.08L267,331Z"/><polygon class="cls-18" points="391.43 362.26 416.99 336.69 416.99 317.45 372.18 362.26 391.43 362.26"/><polygon class="cls-18" points="364.14 362.26 416.99 309.41 416.99 290.17 344.9 362.26 364.14 362.26"/><polygon class="cls-18" points="336.86 362.26 416.99 282.12 416.99 262.88 317.61 362.26 336.86 362.26"/><polygon class="cls-18" points="266.99 268.41 363.14 172.26 343.9 172.26 266.99 249.17 266.99 268.41"/><path class="cls-18" d="M281.29,172.26h-9.05a5.25,5.25,0,0,0-5.25,5.25v9.05Z"/><polygon class="cls-18" points="266.99 213.84 308.57 172.26 289.33 172.26 266.99 194.6 266.99 213.84"/><path class="cls-18" d="M399.47,362.26h12.27A5.25,5.25,0,0,0,417,357V344.74Z"/><path class="cls-18" d="M267,303.74V323L383.35,206.62a5.43,5.43,0,0,1-.19-1.35V187.58Z"/><path class="cls-18" d="M267,295.7,383.16,179.53v-2a5.25,5.25,0,0,0-5.25-5.25h-6.72L267,276.45Z"/><polygon class="cls-18" points="266.99 241.13 335.86 172.26 316.62 172.26 266.99 221.88 266.99 241.13"/></g><path class="cls-18" d="M372,307.42a3.46,3.46,0,0,1-2.47-1l-5.68-5.59c-2.3-2.25-4.22-4.14-5.74-5.65a47.31,47.31,0,0,1-16,2.67,48.95,48.95,0,0,1-45.8-31.19,3.49,3.49,0,0,1,0-2.58A49.7,49.7,0,0,1,308.89,246c-1-1-2.15-2.19-3.43-3.51l-.56-.57q-3.34-3.42-3.85-3.92a3.5,3.5,0,0,1-1-2.48,3.46,3.46,0,0,1,1-2.47l4.89-4.89a3.46,3.46,0,0,1,2.47-1,3.5,3.5,0,0,1,2.48,1L323.73,241a3.5,3.5,0,0,1,1.71-5.13,46.35,46.35,0,0,1,16.64-3,47.85,47.85,0,0,1,27.79,8.59,48.38,48.38,0,0,1,17.84,22.61,3.56,3.56,0,0,1,0,2.59,50.94,50.94,0,0,1-14.18,19.62,3.46,3.46,0,0,1-2.28.84,3.54,3.54,0,0,1-1.86-.53l9.95,9.95a3.5,3.5,0,0,1,1,2.47,3.54,3.54,0,0,1-1,2.48l-4.89,4.88A3.48,3.48,0,0,1,372,307.42ZM326.38,263.3a13.21,13.21,0,0,0-.17,2.06,16,16,0,0,0,15.87,15.87,13.33,13.33,0,0,0,2.07-.17l-.7-.7a10.86,10.86,0,0,1-1.37.09A15.25,15.25,0,0,1,327,265.36a12.85,12.85,0,0,1,.08-1.36Zm30.66,11a3.49,3.49,0,0,1-.26-3.22,14.61,14.61,0,0,0,1.17-5.7,16,16,0,0,0-15.87-15.87,14.61,14.61,0,0,0-5.7,1.17,3.42,3.42,0,0,1-1.36.28,3.53,3.53,0,0,1-1.86-.54l9.69,9.69-3.8-3.86a3.5,3.5,0,0,1,2.49-6h.54a15.26,15.26,0,0,1,15.09,15.09v.72a3.51,3.51,0,0,1-2.17,3.24,3.43,3.43,0,0,1-1.33.26,3.52,3.52,0,0,1-1.86-.53Z"/><path class="cls-12" d="M308.41,230.6,376.84,299,372,303.92l-5.7-5.61q-4.8-4.71-7.33-7.24a43.2,43.2,0,0,1-16.84,3.25,45.45,45.45,0,0,1-42.54-29A46.77,46.77,0,0,1,314,246.17c-1.44-1.45-3.47-3.5-6.06-6.15s-4.07-4.17-4.44-4.53l4.89-4.89m33.67,54.13a18.89,18.89,0,0,0,8.51-2.17l-6-6a10.3,10.3,0,0,1-2.54.37,11.75,11.75,0,0,1-11.58-11.59,10.65,10.65,0,0,1,.36-2.53l-6-6a18.94,18.94,0,0,0-2.18,8.51,19.48,19.48,0,0,0,19.37,19.37m0-48.33a44.23,44.23,0,0,1,25.8,8,44.68,44.68,0,0,1,16.56,21,47.08,47.08,0,0,1-13.21,18.28L360,272.42a18.08,18.08,0,0,0,1.44-7.06A19.46,19.46,0,0,0,342.08,246a18,18,0,0,0-7.06,1.45l-8.32-8.33a42.46,42.46,0,0,1,15.38-2.71m0,17.37a11.75,11.75,0,0,1,11.59,11.59v.72l-12.13-12.31h.54M308.41,223.6a7,7,0,0,0-5,2.05l-4.88,4.89a7,7,0,0,0,0,9.9c.37.37,2.29,2.32,4.39,4.47l1,1a52.79,52.79,0,0,0-10.89,16.82,7,7,0,0,0,0,5.16,52.8,52.8,0,0,0,64.1,31.25l4.23,4.15,5.66,5.57a7,7,0,0,0,9.89,0l4.89-4.89a7,7,0,0,0,0-9.9l-5.53-5.53A54.26,54.26,0,0,0,390.93,268a7,7,0,0,0,0-5.18,51.81,51.81,0,0,0-19.1-24.21,51.26,51.26,0,0,0-29.79-9.21,49.73,49.73,0,0,0-17.9,3.18,6.93,6.93,0,0,0-2.37,1.52l-8.45-8.45a7,7,0,0,0-4.95-2.05Z"/></svg>