<?xml version="1.0" standalone="no"?>
<!DOCTYPE svg PUBLIC "-//W3C//DTD SVG 20010904//EN"
 "http://www.w3.org/TR/2001/REC-SVG-20010904/DTD/svg10.dtd">
<svg version="1.0" xmlns="http://www.w3.org/2000/svg"
 width="37.000000pt" height="36.000000pt" viewBox="0 0 37.000000 36.000000"
 preserveAspectRatio="xMidYMid meet">

<g transform="translate(0.000000,36.000000) scale(0.100000,-0.100000)"
fill="#ffffff" stroke="none">
<path d="M117 301 c-52 -34 -72 -105 -42 -145 14 -18 15 -16 15 31 0 66 7 83
34 83 12 0 27 5 34 12 9 9 17 9 34 0 13 -6 32 -12 43 -14 17 -3 21 -13 25 -68
5 -62 6 -64 18 -36 43 99 -72 196 -161 137z"/>
<path d="M160 210 c0 -11 7 -20 15 -20 8 0 15 9 15 20 0 11 -7 20 -15 20 -8 0
-15 -9 -15 -20z"/>
<path d="M144 155 c-17 -13 -15 -14 31 -14 46 0 48 1 31 14 -11 8 -25 15 -31
15 -6 0 -20 -7 -31 -15z"/>
<path d="M148 98 c23 -8 39 -8 55 0 19 9 13 11 -33 10 -53 0 -54 -1 -22 -10z"/>
</g>
</svg>
