<?xml version="1.0" standalone="no"?>
<!DOCTYPE svg PUBLIC "-//W3C//DTD SVG 20010904//EN"
 "http://www.w3.org/TR/2001/REC-SVG-20010904/DTD/svg10.dtd">
<svg version="1.0" xmlns="http://www.w3.org/2000/svg"
 width="607.000000pt" height="306.000000pt" viewBox="0 0 607.000000 306.000000"
 preserveAspectRatio="xMidYMid meet">

<g transform="translate(0.000000,306.000000) scale(0.100000,-0.100000)"
fill="#ffffff" stroke="none">
<path d="M2938 1786 c-26 -7 -55 -19 -65 -26 -45 -34 -103 -103 -114 -138 -29
-85 -10 -201 42 -262 17 -20 26 -26 20 -13 -6 12 -11 86 -11 170 0 181 5 193
81 193 36 0 56 6 71 20 14 13 36 20 60 20 27 0 41 -6 50 -20 10 -16 24 -20 63
-20 28 0 56 -5 63 -12 8 -8 12 -64 12 -186 0 -190 4 -198 51 -96 40 87 22 222
-39 286 -9 10 -25 27 -35 37 -21 22 -135 61 -175 60 -15 0 -48 -6 -74 -13z"/>
<path d="M2989 1597 c-33 -26 -33 -69 1 -87 25 -13 50 -3 43 18 -5 11 -2 14
10 9 26 -10 23 49 -2 63 -25 13 -32 12 -52 -3z"/>
<path d="M2955 1443 c-26 -7 -55 -33 -55 -50 0 -10 25 -13 116 -13 123 0 133
5 82 43 -27 20 -104 31 -143 20z"/>
<path d="M2890 1291 c30 -16 73 -31 95 -34 52 -8 146 14 176 41 l23 22 -175 0
-174 -1 55 -28z"/>
</g>
</svg>
