<?xml version="1.0" encoding="UTF-8"?>
<svg width="110px" height="120px" viewBox="0 0 110 120" version="1.1" xmlns="http://www.w3.org/2000/svg" xmlns:xlink="http://www.w3.org/1999/xlink">
    <!-- Generator: Sketch 53.1 (72631) - https://sketchapp.com -->
    <title>upload-blue</title>
    <desc>Created with Sketch.</desc>
    <g id="upload-blue" stroke="none" stroke-width="1" fill="none" fill-rule="evenodd">
        <path d="M62.635514,63.7708333 L74,63.7708333 L55,45 L36,63.7708333 L47.364486,63.7708333 L47.364486,90 L62.635514,90 L62.635514,63.7708333 Z M82.5976562,52.6315789 C87.4023678,52.9824579 91.5038893,54.9415026 94.9023438,58.5087719 C98.3007982,62.0760412 100,66.3157649 100,71.2280702 C100,76.3742947 98.1543153,80.7894553 94.4628906,84.4736842 C90.7714659,88.1579132 86.347682,90 81.1914062,90 L32.5,90 C26.2890314,90 20.9863501,87.8070395 16.5917969,83.4210526 C12.1972437,79.0350658 10,73.7427211 10,67.5438596 C10,61.8128368 11.9335744,56.8128868 15.8007812,52.5438596 C19.6679881,48.2748325 24.4140344,45.8479561 30.0390625,45.2631579 C32.5000123,40.7017316 35.957009,37.0175579 40.4101562,34.2105263 C44.8633035,31.4034947 49.7265361,30 55,30 C61.796909,30 67.7734117,32.1344816 72.9296875,36.4035088 C78.0859633,40.672536 81.3085873,46.0818386 82.5976562,52.6315789 Z" id="cloud_upload" fill="#B6CBD4"></path>
    </g>
</svg>